<?xml version="1.0" encoding="UTF-8"?>
<svg width="236px" height="72px" viewBox="0 0 236 72" version="1.1" xmlns="http://www.w3.org/2000/svg" xmlns:xlink="http://www.w3.org/1999/xlink">
    <title>编组 2</title>
    <defs>
        <polygon id="path-1" points="0 45.7163616 233.267088 45.7163616 233.267088 -0.0002064 0 -0.0002064"></polygon>
    </defs>
    <g id="页面-1" stroke="none" stroke-width="1" fill="none" fill-rule="evenodd">
        <g id="web官网" transform="translate(-1279.000000, -476.000000)">
            <g id="编组-2" transform="translate(1279.000000, 476.000000)">
                <rect id="矩形" fill="#FFFFFF" opacity="0" x="0" y="0" width="236" height="72"></rect>
                <g id="编组" transform="translate(1.000000, 13.000000)">
                    <path d="M149.716987,12.5503584 C149.716987,19.3646544 145.902715,23.0220624 138.780883,23.0220624 C131.798371,23.0220624 127.855099,19.2645504 127.855099,12.6133104 L127.855099,0.5316864 L135.714811,0.5316864 L135.714811,12.2283744 C135.714811,15.4636944 136.605427,16.9033344 138.712771,16.9033344 C140.833531,16.9033344 141.854179,15.6133344 141.854179,11.8950384 L141.854179,0.5316864 L149.716987,0.5316864 L149.716987,12.5503584 Z" id="Fill-1" fill="#000000"></path>
                    <polygon id="Fill-3" fill="#000000" points="37.1041152 6.1245072 37.1041152 22.5622032 29.1659712 22.5622032 29.1659712 6.1245072 22.5229872 6.1245072 22.5229872 0.5320992 43.7357472 0.5320992 43.7357472 6.1245072"></polygon>
                    <path d="M62.2016328,22.5619968 L60.8878968,18.5320368 L53.4316968,18.5320368 L52.0219848,22.5619968 L44.1065448,22.5619968 L52.1282808,0.5246688 L62.1799608,0.5246688 L70.1108808,22.5619968 L62.2016328,22.5619968 Z M57.1014888,5.5453488 L55.1499768,13.1016528 L59.1035688,13.1016528 L57.1014888,5.5453488 Z" id="Fill-5" fill="#000000"></path>
                    <path d="M175.172402,20.8486704 L172.79777,15.1396464 C171.39941,16.2015744 169.98041,17.1437904 167.66873,17.1437904 C164.55725,17.1437904 162.487058,14.5792704 162.487058,11.4543744 C162.487058,8.2851024 164.312666,5.6411184 167.546954,5.6411184 C169.594442,5.6411184 171.37361,6.6617664 172.79777,7.7938704 L175.147634,2.2076544 C172.525322,0.8908224 169.900946,0.0837984 166.282754,0.0837984 C159.626354,0.0837984 154.568522,4.6390464 154.568522,11.3831664 C154.568522,18.5060304 159.477746,23.0199984 166.520114,23.0199984 C170.387018,23.0199984 173.103242,22.1211264 175.172402,20.8486704" id="Fill-7" fill="#000000"></path>
                    <polygon id="Fill-9" fill="#000000" points="193.007633 22.5619968 188.041649 14.5299408 188.041649 22.5619968 180.339833 22.5619968 180.339833 0.5246688 188.041649 0.5246688 188.041649 8.6031648 192.697001 0.5246688 201.303881 0.5246688 194.078849 11.3833728 202.231649 22.5619968"></polygon>
                    <path d="M9.2702496,23.0205144 C14.2682256,23.0205144 19.4457696,21.2361864 19.4457696,15.5952744 C19.4457696,10.5075144 15.1258176,9.1205064 11.7491136,8.3981064 C9.2021376,7.8480504 7.9905696,7.6044984 7.9905696,6.5704344 C7.9905696,5.2308984 9.7026576,5.1173784 10.6170096,5.1173784 C12.9018576,5.1173784 15.0391296,6.0575304 16.8719616,7.1741544 L18.9277056,2.1431544 C16.2424416,0.9883464 12.9833856,0.0832824 9.9369216,0.0832824 C4.7490576,0.0832824 0.6912336,2.5858824 0.6912336,7.6210104 C0.6912336,11.7521064 3.8212896,13.3434504 7.2784896,14.1969144 C9.6758256,14.7934104 11.2062816,14.9719464 11.2062816,16.1556504 C11.2062816,17.3393544 10.0359936,17.6809464 8.8915056,17.6809464 C6.3672336,17.6809464 3.9760896,16.5932184 2.4848496,15.3156024 L0.0008256,20.1773544 C2.6871216,21.9142104 5.9647536,23.0205144 9.2702496,23.0205144" id="Fill-11" fill="#000000"></path>
                    <path d="M213.906665,23.0205144 C218.906705,23.0205144 224.087345,21.2361864 224.087345,15.5952744 C224.087345,10.5075144 219.764297,9.1205064 216.388625,8.3981064 C213.845777,7.8480504 212.629049,7.6044984 212.629049,6.5704344 C212.629049,5.2308984 214.341137,5.1173784 215.253425,5.1173784 C217.548593,5.1173784 219.682769,6.0575304 221.507345,7.1741544 L223.567217,2.1431544 C220.880921,0.9883464 217.625993,0.0832824 214.569209,0.0832824 C209.389601,0.0832824 205.327649,2.5858824 205.327649,7.6210104 C205.327649,11.7521064 208.466993,13.3434504 211.918001,14.1969144 C214.311209,14.7934104 215.846825,14.9719464 215.846825,16.1556504 C215.846825,17.3393544 214.670345,17.6809464 213.538241,17.6809464 C211.010873,17.6809464 208.626953,16.5932184 207.131585,15.3156024 L204.640337,20.1773544 C207.326633,21.9142104 210.601169,23.0205144 213.906665,23.0205144" id="Fill-13" fill="#000000"></path>
                    <path d="M87.4564272,8.10894 C87.4564272,9.565092 86.5317552,10.39998 85.0322592,10.39998 L82.3201632,10.39998 L82.3201632,5.796228 L85.0580592,5.796228 C86.5111152,5.796228 87.4564272,6.534108 87.4564272,8.049084 L87.4564272,8.10894 Z M91.0230192,14.332932 C93.7216992,13.339116 95.1943632,10.628052 95.1943632,8.090364 C95.1943632,2.888052 91.6298352,0.531996 86.5781952,0.531996 L74.6751072,0.531996 L74.6751072,22.5621 L82.3139712,22.5621 L82.3139712,16.032636 L84.2427792,16.032636 L88.2190752,22.5621 L96.4688832,22.5621 L91.0230192,14.332932 Z" id="Fill-15" fill="#000000"></path>
                    <path d="M114.601846,15.740064 C114.601846,17.031096 113.661694,17.788584 112.107502,17.788584 L109.306654,17.788584 L109.306654,13.646136 L112.135366,13.646136 C113.635894,13.646136 114.601846,14.327256 114.601846,15.687432 L114.601846,15.740064 Z M109.306654,5.300352 L112.074478,5.300352 C113.541982,5.300352 114.486262,5.929872 114.486262,7.219872 L114.486262,7.283856 C114.486262,8.509872 113.575006,9.232272 112.048678,9.232272 L109.306654,9.232272 L109.306654,5.300352 Z M117.798982,11.313816 C120.67723,10.688424 122.084878,9.083664 122.084878,6.39324 C122.084878,2.6316 119.267518,0.532512 114.31495,0.532512 L101.74519,0.532512 L101.74519,22.563648 L113.818558,22.563648 C119.654518,22.563648 122.552374,20.514096 122.552374,16.353072 C122.552374,13.484112 120.73399,11.547048 117.798982,11.313816 L117.798982,11.313816 Z" id="Fill-17" fill="#000000"></path>
                    <path d="M230.184814,3.1384152 C230.64715,3.1384152 230.963974,2.9185992 230.963974,2.5377912 L230.963974,2.5274712 C230.963974,2.1755592 230.67811,1.9588392 230.206486,1.9588392 L229.22815,1.9588392 L229.22815,3.1384152 L230.184814,3.1384152 Z M228.738982,1.5057912 L230.226094,1.5057912 C230.64715,1.5057912 230.994934,1.6358232 231.205462,1.8597672 C231.367486,2.0145672 231.47791,2.2354152 231.47791,2.4934152 L231.47791,2.5274712 C231.47791,3.0465672 231.120838,3.3788712 230.617222,3.4996152 L231.652318,4.8216072 L231.03931,4.8216072 L230.077486,3.5790792 L230.062006,3.5790792 L229.22815,3.5790792 L229.22815,4.8216072 L228.738982,4.8216072 L228.738982,1.5057912 Z M232.817446,3.2570952 L232.817446,3.2416152 C232.817446,1.7049672 231.608974,0.4304472 230.016598,0.4304472 C228.406678,0.4304472 227.198206,1.7152872 227.198206,3.2570952 L227.198206,3.2746392 C227.198206,4.8216072 228.401518,6.0878712 229.999054,6.0878712 C231.603814,6.0878712 232.817446,4.8050952 232.817446,3.2570952 L232.817446,3.2570952 Z M226.739998,3.2746392 L226.739998,3.2570952 C226.739998,1.4903112 228.18583,0.0001032 230.016598,0.0001032 C231.843238,0.0001032 233.266366,1.4645112 233.266366,3.2416152 L233.266366,3.2570952 C233.266366,5.0311032 231.82879,6.5233752 229.999054,6.5233752 C228.168286,6.5233752 226.739998,5.0558712 226.739998,3.2746392 L226.739998,3.2746392 Z" id="Fill-19" fill="#000000"></path>
                    <path d="M8.4882,36.122064 C8.4882,34.869216 7.614096,34.224216 6.189936,34.224216 L3.287952,34.224216 L3.287952,38.038488 L6.24876,38.038488 C7.671888,38.038488 8.4882,37.279968 8.4882,36.160248 L8.4882,36.122064 Z M8.429376,44.872392 L5.585184,40.61952 L3.287952,40.61952 L3.287952,44.872392 L0.364296,44.872392 L0.364296,31.585392 L6.438648,31.585392 C9.569736,31.585392 11.447976,33.236592 11.447976,35.97036 L11.447976,36.008544 C11.447976,38.15304 10.291104,39.4998 8.600688,40.127256 L11.84736,44.872392 L8.429376,44.872392 Z" id="Fill-21" fill="#000000"></path>
                    <polygon id="Fill-23" fill="#000000" points="17.885076 44.871876 17.885076 31.585908 27.905796 31.585908 27.905796 34.186548 20.788092 34.186548 20.788092 36.8811 27.052332 36.8811 27.052332 39.480708 20.788092 39.480708 20.788092 42.271236 28.00074 42.271236 28.00074 44.871876"></polygon>
                    <polygon id="Fill-25" fill="#000000" points="48.995232 44.9666136 46.451352 44.9666136 43.45236 36.2740776 40.4544 44.9666136 37.91052 44.9666136 33.373848 31.5857016 36.504936 31.5857016 39.25728 40.5826776 42.237696 31.5475176 44.743392 31.5475176 47.723808 40.5826776 50.47512 31.5857016 53.530872 31.5857016"></polygon>
                    <path d="M63.6478776,35.002344 L61.8831576,39.310944 L65.4125976,39.310944 L63.6478776,35.002344 Z M67.6706136,44.87136 L66.4569816,41.891976 L60.8387736,41.891976 L59.6251416,44.87136 L56.6436936,44.87136 L62.3372376,31.49148 L65.0328216,31.49148 L70.7263656,44.87136 L67.6706136,44.87136 Z" id="Fill-27" fill="#000000"></path>
                    <path d="M84.6979944,36.122064 C84.6979944,34.869216 83.8249224,34.224216 82.4017944,34.224216 L79.4977464,34.224216 L79.4977464,38.038488 L82.4585544,38.038488 C83.8816824,38.038488 84.6979944,37.279968 84.6979944,36.160248 L84.6979944,36.122064 Z M84.6412344,44.872392 L81.7949784,40.61952 L79.4977464,40.61952 L79.4977464,44.872392 L76.5740904,44.872392 L76.5740904,31.585392 L82.6484424,31.585392 C85.7795304,31.585392 87.6588024,33.236592 87.6588024,35.97036 L87.6588024,36.008544 C87.6588024,38.15304 86.5019304,39.4998 84.8115144,40.127256 L88.0571544,44.872392 L84.6412344,44.872392 Z" id="Fill-29" fill="#000000"></path>
                    <path d="M103.281115,38.228376 C103.281115,35.875416 101.669131,34.224216 99.2769552,34.224216 L97.0179072,34.224216 L97.0179072,42.233568 L99.2769552,42.233568 C101.669131,42.233568 103.281115,40.61952 103.281115,38.26656 L103.281115,38.228376 Z M99.2769552,44.87136 L94.0963152,44.87136 L94.0963152,31.585392 L99.2769552,31.585392 C103.452427,31.585392 106.336867,34.452288 106.336867,38.191224 L106.336867,38.228376 C106.336867,41.967312 103.452427,44.87136 99.2769552,44.87136 L99.2769552,44.87136 Z" id="Fill-31" fill="#000000"></path>
                    <path d="M117.271526,45.0613512 C115.260158,45.0613512 113.229182,44.3585592 111.634742,42.9354312 L113.361278,40.8673032 C114.557366,41.8538952 115.810214,42.4803192 117.328286,42.4803192 C118.524374,42.4803192 119.245742,42.0055992 119.245742,41.2274712 L119.245742,41.1892872 C119.245742,40.4493432 118.79063,40.0695672 116.568734,39.4999032 C113.894822,38.8167192 112.166222,38.0767752 112.166222,35.4389832 L112.166222,35.4007992 C112.166222,32.9910792 114.102254,31.3966392 116.817446,31.3966392 C118.753478,31.3966392 120.403646,32.0034552 121.750406,33.0860232 L120.232334,35.2862472 C119.055854,34.4709672 117.89795,33.9776712 116.77823,33.9776712 C115.659542,33.9776712 115.07027,34.4895432 115.07027,35.1355752 L115.07027,35.1727272 C115.07027,36.0468312 115.638902,36.3306312 117.937166,36.9188712 C120.630686,37.6216632 122.150822,38.5896792 122.150822,40.9054872 L122.150822,40.9426392 C122.150822,43.5804312 120.13739,45.0613512 117.271526,45.0613512" id="Fill-33" fill="#000000"></path>
                    <mask id="mask-2" fill="white">
                        <use xlink:href="#path-1"></use>
                    </mask>
                    <g id="Clip-36"></g>
                    <path d="M130.87308,37.2818256 L142.714248,37.2818256 L142.714248,32.4438096 L130.87308,32.4438096 L130.87308,37.2818256 Z M130.230144,37.9257936 L143.357184,37.9257936 L143.357184,31.7988096 L130.230144,31.7988096 L130.230144,37.9257936 Z" id="Fill-35" fill="#000000" mask="url(#mask-2)"></path>
                    <polygon id="Fill-37" fill="#000000" mask="url(#mask-2)" points="143.200526 40.678344 130.241702 40.678344 130.241702 38.609184 130.884638 38.609184 130.884638 40.034376 143.200526 40.034376"></polygon>
                    <polygon id="Fill-38" fill="#000000" mask="url(#mask-2)" points="130.440672 42.9506016 143.144592 42.9506016 143.144592 42.3066336 130.440672 42.3066336"></polygon>
                    <polygon id="Fill-39" fill="#000000" mask="url(#mask-2)" points="129.489168 45.4810656 144.095064 45.4810656 144.095064 44.8370976 129.489168 44.8370976"></polygon>
                    <polygon id="Fill-40" fill="#000000" mask="url(#mask-2)" points="136.47168 45.1601136 137.114616 45.1601136 137.114616 38.6554176 136.47168 38.6554176"></polygon>
                    <polygon id="Fill-41" fill="#000000" mask="url(#mask-2)" points="132.200232 35.1476496 141.384 35.1476496 141.384 34.5036816 132.200232 34.5036816"></polygon>
                    <polygon id="Fill-42" fill="#000000" mask="url(#mask-2)" points="149.408832 33.0609456 163.936296 33.0609456 163.936296 32.4169776 149.408832 32.4169776"></polygon>
                    <path d="M151.775208,37.2931776 L161.773224,37.2931776 L161.773224,34.5656016 L151.775208,34.5656016 L151.775208,37.2931776 Z M151.130208,37.9371456 L162.414096,37.9371456 L162.414096,33.9216336 L151.130208,33.9216336 L151.130208,37.9371456 Z" id="Fill-43" fill="#000000" mask="url(#mask-2)"></path>
                    <polygon id="Fill-44" fill="#000000" mask="url(#mask-2)" points="149.290152 39.5367456 163.990992 39.5367456 163.990992 38.8927776 149.290152 38.8927776"></polygon>
                    <polygon id="Fill-45" fill="#000000" mask="url(#mask-2)" points="149.290152 42.6843456 163.990992 42.6843456 163.990992 42.0403776 149.290152 42.0403776"></polygon>
                    <polygon id="Fill-46" fill="#000000" mask="url(#mask-2)" points="156.56214 41.4795888 155.919204 41.4795888 155.919204 40.6013568 158.715924 39.0389088 159.030684 39.6013488 156.56214 40.9801008"></polygon>
                    <polygon id="Fill-47" fill="#000000" mask="url(#mask-2)" points="156.69114 45.5955144 150.845892 45.5955144 150.845892 44.9515464 156.048204 44.9515464 156.048204 42.4128264 156.69114 42.4128264"></polygon>
                    <polygon id="Fill-48" fill="#000000" mask="url(#mask-2)" points="169.606207 35.4226776 169.197535 34.9252536 173.141839 31.6961256 173.547415 32.1935496"></polygon>
                    <polygon id="Fill-49" fill="#000000" mask="url(#mask-2)" points="171.36587 45.2115072 171.33491 33.3548592 171.977846 33.3527952 172.008806 45.2094432"></polygon>
                    <polygon id="Fill-50" fill="#000000" mask="url(#mask-2)" points="175.080658 42.3634968 174.437722 42.3634968 174.437722 31.6554648 182.39857 31.6554648 182.39857 42.3500808 181.755634 42.3500808 181.755634 32.2994328 175.080658 32.2994328"></polygon>
                    <polygon id="Fill-51" fill="#000000" mask="url(#mask-2)" points="172.866192 42.6771216 183.571128 42.6771216 183.571128 42.0331536 172.866192 42.0331536"></polygon>
                    <polygon id="Fill-52" fill="#000000" mask="url(#mask-2)" points="175.569 45.2695056 176.211936 45.2695056 176.211936 42.8824896 175.569 42.8824896"></polygon>
                    <polygon id="Fill-53" fill="#000000" mask="url(#mask-2)" points="182.743051 45.541128 180.165115 43.041624 180.613003 42.579288 183.190939 45.078792"></polygon>
                    <polygon id="Fill-54" fill="#000000" mask="url(#mask-2)" points="177.78264 35.0454816 182.174832 35.0454816 182.174832 34.4015136 177.78264 34.4015136"></polygon>
                    <polygon id="Fill-55" fill="#000000" mask="url(#mask-2)" points="177.78264 37.7617056 182.174832 37.7617056 182.174832 37.1177376 177.78264 37.1177376"></polygon>
                    <polygon id="Fill-56" fill="#000000" mask="url(#mask-2)" points="177.78264 40.1394336 182.174832 40.1394336 182.174832 39.4954656 177.78264 39.4954656"></polygon>
                    <polygon id="Fill-57" fill="#D2A04A" mask="url(#mask-2)" points="156.630665 26.554908 156.065129 28.742748 153.791633 28.742748 155.697737 29.83254 154.898969 31.981164 156.640985 30.561132 158.409833 31.960524 157.670921 29.802612 159.489305 28.742748 157.261217 28.742748"></polygon>
                    <polygon id="Fill-58" fill="#000000" mask="url(#mask-2)" points="213.053304 32.7410256 213.69624 32.7410256 213.69624 31.4283216 213.053304 31.4283216"></polygon>
                    <polygon id="Fill-59" fill="#000000" mask="url(#mask-2)" points="209.283408 33.1538256 217.658088 33.1538256 217.658088 32.5098576 209.283408 32.5098576"></polygon>
                    <polygon id="Fill-60" fill="#000000" mask="url(#mask-2)" points="209.283408 38.0083536 217.658088 38.0083536 217.658088 37.3643856 209.283408 37.3643856"></polygon>
                    <polygon id="Fill-61" fill="#000000" mask="url(#mask-2)" points="211.434096 36.6058656 212.077032 36.6058656 212.077032 33.9123456 211.434096 33.9123456"></polygon>
                    <polygon id="Fill-62" fill="#000000" mask="url(#mask-2)" points="214.635257 36.769128 214.079009 36.44508 215.647649 33.750528 216.204929 34.075608"></polygon>
                    <path d="M210.808704,44.8370976 L216.129696,44.8370976 L216.129696,39.5769936 L210.808704,39.5769936 L210.808704,44.8370976 Z M210.165768,45.4810656 L216.772632,45.4810656 L216.772632,38.9330256 L210.165768,38.9330256 L210.165768,45.4810656 Z" id="Fill-63" fill="#000000" mask="url(#mask-2)"></path>
                    <polygon id="Fill-64" fill="#000000" mask="url(#mask-2)" points="222.262356 45.7164648 221.786604 45.2819928 223.11066 43.8310008 223.11066 38.2840008 221.508996 38.2840008 221.543052 37.2127848 223.041516 34.2612648 223.041516 32.1663048 219.33354 32.1663048 219.33354 45.5441208 218.690604 45.5441208 218.690604 31.5223368 223.684452 31.5223368 223.650396 34.4841768 222.151932 37.4356968 222.151932 37.6400328 223.753596 37.6400328 223.753596 44.0807448"></polygon>
                    <polygon id="Fill-65" fill="#000000" mask="url(#mask-2)" points="202.676544 37.9885392 189.048984 37.9885392 189.048984 32.3032512 200.092416 32.3032512 201.8076 31.3888992 202.129584 31.9915872 200.178072 32.9864352 189.731136 32.9864352 189.731136 37.3053552 202.676544 37.3053552"></polygon>
                    <polygon id="Fill-66" fill="#000000" mask="url(#mask-2)" points="196.672987 45.4584648 192.137347 45.4584648 192.137347 44.7752808 195.989803 44.7752808 195.989803 34.6854168 196.672987 34.6854168"></polygon>
                    <polygon id="Fill-67" fill="#000000" mask="url(#mask-2)" points="189.030821 45.5077944 189.006053 40.6429464 189.689237 40.6388184 189.712973 45.5046984"></polygon>
                    <polygon id="Fill-68" fill="#000000" mask="url(#mask-2)" points="203.539296 45.4916952 193.527864 40.6351032 193.826112 40.0200312 203.837544 44.8766232"></polygon>
                </g>
            </g>
        </g>
    </g>
</svg>
